Coordinates
version=1
nRows=10
nColumns=63
inDegrees=yes

Units are S.I. units (second, meters, Newtons, ...)
If the header above contains a line with 'inDegrees', this indicates whether rotational values are in degrees (yes) or radians (no).

endheader
time	pelvis_tilt	pelvis_list	pelvis_rotation	pelvis_tx	pelvis_ty	pelvis_tz	hip_flexion_r	hip_adduction_r	hip_rotation_r	knee_angle_r	knee_angle_r_beta	ankle_angle_r	subtalar_angle_r	mtp_angle_r	hip_flexion_l	hip_adduction_l	hip_rotation_l	knee_angle_l	knee_angle_l_beta	ankle_angle_l	subtalar_angle_l	mtp_angle_l	L5_S1_Flex_Ext	L5_S1_Lat_Bending	L5_S1_axial_rotation	L4_L5_Flex_Ext	L4_L5_Lat_Bending	L4_L5_axial_rotation	L3_L4_Flex_Ext	L3_L4_Lat_Bending	L3_L4_axial_rotation	L2_L3_Flex_Ext	L2_L3_Lat_Bending	L2_L3_axial_rotation	L1_L2_Flex_Ext	L1_L2_Lat_Bending	L1_L2_axial_rotation	L1_T12_Flex_Ext	L1_T12_Lat_Bending	L1_T12_axial_rotation	Abs_r3	Abs_r2	Abs_r1	Abs_t1	Abs_t2	neck_flexion	neck_bending	neck_rotation	arm_flex_r	arm_add_r	arm_rot_r	elbow_flex_r	pro_sup_r	wrist_flex_r	wrist_dev_r	arm_flex_l	arm_add_l	arm_rot_l	elbow_flex_l	pro_sup_l	wrist_flex_l	wrist_dev_l
      3.90000000	      3.88072080	     -1.10249501	    -10.42549509	      1.05681319	      0.97797277	      0.42365717	    -11.51915855	      2.92298181	     -5.34493489	      4.11305177	      0.07178630	     14.92655271	      6.02689554	      0.00000000	     27.18947662	     -7.72015743	    -10.93826352	     60.57321458	      1.05720203	     10.71050251	    -18.77562602	      0.00000000	     -0.00051902	      0.21343265	      0.99424427	     -0.00096387	      0.28386542	      1.05638453	     -0.00085269	      0.51894014	      1.05638453	     -0.00059319	      0.51894014	      0.86996373	     -0.00048196	      0.43523185	      0.80782347	     -0.00029657	      0.33060717	      0.74568320	     -0.00370730	      2.41439279	      5.52968834	      0.00000000	      0.00000000	      0.00000000	      0.00000000	     -0.00000000	     15.08229056	    -12.71716557	     24.05798095	     35.85011481	     16.42610495	      0.00000000	      5.00000014	     -9.56839720	    -10.06965460	    136.14295818	      0.49464657	      7.36074345	      0.00000000	      5.00000014
      3.93333333	      3.29077842	     -0.70194664	    -12.30988396	      1.09522562	      0.97334502	      0.42729237	    -13.74581876	      1.87182168	     -5.14696163	      2.99255191	      0.05222988	     15.57968375	      5.99024571	      0.00000000	     28.56805938	     -7.58317041	    -11.68269614	     49.03179268	      0.85576622	     10.95841588	    -18.33481076	      0.00000000	      0.00162020	      0.16463823	      1.37406304	      0.00300887	      0.21896884	      1.45994198	      0.00266182	      0.40030139	      1.45994198	      0.00185172	      0.40030139	      1.20230516	      0.00150451	      0.33573027	      1.11642622	      0.00092578	      0.25502461	      1.03054728	      0.01157290	      1.86242056	      7.64212640	      0.00000000	      0.00000000	      0.00000000	      0.00000000	     -0.00000000	     17.94781011	    -13.34052943	     24.84683823	     37.37761062	     16.68809057	      0.00000000	      5.00000014	    -10.70234581	    -10.68336337	    135.19570052	      0.51048951	      7.73368423	      0.00000000	      5.00000014
      3.96666667	      2.79822802	     -0.74877263	    -14.22707238	      1.13539809	      0.96637779	      0.43050079	    -15.96133882	      1.02992900	     -3.37346615	      2.43344121	      0.04247156	     16.17976618	      5.10215947	      0.00000000	     28.23025066	     -8.05482757	    -12.68671700	     36.52379304	      0.63746044	      8.80119254	    -17.52873733	      0.00000000	      0.00473956	      0.16259896	      1.68268455	      0.00880184	      0.21625662	      1.78785233	      0.00778662	      0.39534312	      1.78785233	      0.00541684	      0.39534312	      1.47234898	      0.00440115	      0.33157181	      1.36718119	      0.00270818	      0.25186579	      1.26201341	      0.03385420	      1.83935200	      9.35858665	      0.00000000	      0.00000000	      0.00000000	      0.00000000	     -0.00000000	     20.62249100	    -14.11923844	     27.06779081	     38.56370708	     16.97108690	      0.00000000	      5.00000014	    -12.12270365	    -11.03948312	    126.64545396	      0.70644103	      8.61657759	      0.00000000	      5.00000014
      4.00000000	      2.44997698	     -1.18544677	    -15.54812561	      1.17831558	      0.95763281	      0.43229532	    -18.32141149	      0.40521906	     -1.98026461	      2.55760272	      0.04463859	     17.30213215	      5.49334438	      0.00000000	     27.03854435	     -8.65967425	    -13.42295356	     25.32746957	      0.44204774	      5.51688358	    -16.32643952	      0.00000000	      0.00870111	      0.20501756	      1.85522290	      0.01615884	      0.27267335	      1.97117433	      0.01429506	      0.49847969	      1.97117433	      0.00994450	      0.49847969	      1.62332004	      0.00807985	      0.41807181	      1.50736861	      0.00497182	      0.31757220	      1.39141718	      0.06215119	      2.31919963	     10.31819321	      0.00000000	      0.00000000	      0.00000000	      0.00000000	     -0.00000000	     22.29156758	    -14.55442534	     27.79275858	     40.27460204	     17.88701096	      0.00000000	      5.00000014	    -13.31001899	    -11.08534548	    120.43092451	      1.01551009	     10.99421909	      0.00000000	      5.00000014
      4.03333333	      2.29930510	     -1.87176631	    -16.40414957	      1.22382497	      0.94842456	      0.43266136	    -20.50758840	     -0.16604033	     -1.25857167	      4.06596380	      0.07096446	     19.01775465	      7.08625663	      0.00000000	     25.80392125	     -9.38482031	    -14.35367769	     17.61702120	      0.30747502	      2.98864823	    -14.38338326	      0.00000000	      0.01307397	      0.27462481	      1.91823989	      0.02427967	      0.36525100	      2.03812988	      0.02147923	      0.66772277	      2.03812988	      0.01494224	      0.66772277	      1.67845990	      0.01214049	      0.56001492	      1.55856991	      0.00747047	      0.42539383	      1.43867992	      0.09338606	      3.10661080	     10.66867478	      0.00000000	      0.00000000	      0.00000000	      0.00000000	     -0.00000000	     23.01710672	    -14.55528454	     27.50714400	     41.94351039	     19.38774461	      0.00000000	      5.00000014	    -14.46712670	    -10.90237717	    108.29753930	      1.48658450	     15.07484445	      0.00000000	      5.00000014
      4.06666667	      2.42800897	     -2.39005858	    -16.65499980	      1.27136206	      0.94042702	      0.43145450	    -22.02990764	     -0.95750928	     -0.90323343	      7.77926401	      0.13577377	     20.68176626	      8.02823535	      0.00000000	     24.84716664	     -9.62546791	    -14.74773489	     13.96116819	      0.24366835	      1.77190950	    -13.01323793	      0.00000000	      0.01503416	      0.32102473	      1.87952094	      0.02791993	      0.42696289	      1.99699099	      0.02469962	      0.78053953	      1.99699099	      0.01718254	      0.78053953	      1.64458082	      0.01396072	      0.65463363	      1.52711076	      0.00859052	      0.49726731	      1.40964070	      0.10738748	      3.63149594	     10.45333159	      0.00000000	      0.00000000	      0.00000000	      0.00000000	     -0.00000000	     22.63966097	    -13.99337471	     25.99011230	     43.21431339	     20.94308380	      0.00000000	      5.00000014	    -15.30336392	    -10.55623638	     92.91677831	      1.59008648	     18.15924311	      0.00000000	      5.00000014
      4.10000000	      2.87791612	     -2.54120085	    -16.18844798	      1.32037306	      0.93490404	      0.42851301	    -22.66054802	     -1.73655093	      1.03433246	     13.88630524	      0.24236175	     20.69110324	      4.51944604	      0.00000000	     23.98808247	     -8.99943066	    -13.61629258	     13.61813385	      0.23768127	      1.37641715	    -13.73418881	      0.00000000	      0.01429787	      0.32131896	      1.74334970	      0.02655257	      0.42735421	      1.85230905	      0.02348997	      0.78125491	      1.85230905	      0.01634103	      0.78125491	      1.52543098	      0.01327700	      0.65523362	      1.41647163	      0.00816980	      0.49772307	      1.30751227	      0.10212823	      3.63482431	      9.69598801	      0.00000000	      0.00000000	      0.00000000	      0.00000000	     -0.00000000	     21.16775652	    -13.09562184	     23.85705167	     43.95792366	     21.95313675	      0.00000000	      5.00000014	    -15.26692655	    -10.18315790	     82.13476235	      1.17663592	     17.64506273	      0.00000000	      5.00000014
      4.13333333	      3.64489495	     -2.32981893	    -15.01748315	      1.37049203	      0.93277890	      0.42371493	    -22.29191441	     -2.48540044	      1.95374068	     22.16713535	      0.38688950	     18.07003652	     -0.08113893	      0.00000000	     22.75717259	     -7.57824227	    -12.28507223	     15.24884224	      0.26614250	      1.84789938	    -14.48787645	      0.00000000	      0.01169434	      0.27772385	      1.52195451	      0.02171756	      0.36937272	      1.61707667	      0.01921264	      0.67525776	      1.61707667	      0.01336546	      0.67525776	      1.33171019	      0.01085937	      0.56633447	      1.23658804	      0.00668215	      0.43019424	      1.14146588	      0.08353152	      3.14166770	      8.46465439	      0.00000000	      0.00000000	      0.00000000	      0.00000000	     -0.00000000	     18.68537796	    -12.12574700	     21.52203960	     44.04142616	     23.66604323	      0.00000000	      5.00000014	    -14.41568156	     -9.94352925	     76.41302391	      0.96106737	     11.38129441	      0.00000000	      5.00000014
      4.16666667	      4.66704783	     -1.93988071	    -13.05556018	      1.42133958	      0.93441139	      0.41694564	    -21.13901651	     -3.11838612	      1.32616500	     31.51533595	      0.55004638	     12.11078879	     -4.86487444	      0.00000000	     20.82613763	     -5.54260870	    -10.69661505	     17.55325971	      0.30636218	      2.96829768	    -14.83472143	      0.00000000	      0.00885736	      0.21521867	      1.20799992	      0.01644901	      0.28624084	      1.28349992	      0.01455176	      0.52328269	      1.28349992	      0.01012308	      0.52328269	      1.05699993	      0.00822495	      0.43887392	      0.98149994	      0.00506110	      0.33337373	      0.90599994	      0.06326726	      2.43459669	      6.71853317	      0.00000000	      0.00000000	      0.00000000	      0.00000000	     -0.00000000	     15.35895975	    -11.25825454	     19.28022517	     43.34003688	     23.66158479	      0.00000000	      5.00000014	    -12.71944844	     -9.82111646	     78.21423865	      0.89412752	     10.42410595	      0.00000000	      5.00000014
      4.20000000	      5.79467106	     -1.51269315	    -10.45392601	      1.47181506	      0.93957419	      0.40870095	    -19.25007215	     -3.70204901	     -0.51147253	     40.85650215	      0.71308048	      3.96476589	     -9.26078559	      0.00000000	     17.91547043	     -3.31010941	     -9.34624750	     19.20796732	      0.33524227	      4.66656609	    -13.92239837	      0.00000000	      0.00629569	      0.15088788	      0.79239809	      0.01169172	      0.20068088	      0.84192297	      0.01034318	      0.36686878	      0.84192297	      0.00719534	      0.36686878	      0.69334833	      0.00584617	      0.30769056	      0.64382345	      0.00359736	      0.23372532	      0.59429857	      0.04496946	      1.70687384	      4.40708045	      0.00000000	      0.00000000	      0.00000000	      0.00000000	     -0.00000000	     11.72529037	    -10.65083754	     17.97519570	     41.47648459	     24.66407850	      0.00000000	      5.00000014	    -10.43440146	     -9.60996157	     91.61813678	      0.82759668	      8.48514617	      0.00000000	      5.00000014
